<mxfile host="app.diagrams.net" modified="2025-10-20T00:00:00.000Z" agent="Claude Code" version="24.0.0">
  <diagram name="Arquitectura en Capas" id="arquitectura-capas">
    <mxGraphModel dx="1422" dy="794" grid="1" gridSize="10" guides="1" tooltips="1" connect="1" arrows="1" fold="1" page="1" pageScale="1" pageWidth="850" pageHeight="1100" math="0" shadow="0">
      <root>
        <mxCell id="0" />
        <mxCell id="1" parent="0" />

        <!-- Título -->
        <mxCell id="titulo" value="Arquitectura en Capas - Spring Boot" style="text;html=1;strokeColor=none;fillColor=none;align=center;verticalAlign=middle;whiteSpace=wrap;fontSize=20;fontStyle=1" vertex="1" parent="1">
          <mxGeometry x="225" y="40" width="400" height="40" as="geometry" />
        </mxCell>

        <!-- Capa 1: Controller -->
        <mxCell id="controller-box" value="" style="rounded=1;whiteSpace=wrap;html=1;fillColor=#dae8fc;strokeColor=#6c8ebf;fontStyle=1" vertex="1" parent="1">
          <mxGeometry x="150" y="120" width="550" height="120" as="geometry" />
        </mxCell>
        <mxCell id="controller-title" value="Presentation Layer (Controller)" style="text;html=1;strokeColor=none;fillColor=none;align=center;verticalAlign=middle;whiteSpace=wrap;fontSize=16;fontStyle=1" vertex="1" parent="1">
          <mxGeometry x="150" y="130" width="550" height="30" as="geometry" />
        </mxCell>
        <mxCell id="controller-annotation" value="@RestController" style="text;html=1;strokeColor=none;fillColor=#f5f5f5;align=center;verticalAlign=middle;whiteSpace=wrap;fontSize=12;fontFamily=Courier New;fontColor=#333333;" vertex="1" parent="1">
          <mxGeometry x="180" y="170" width="150" height="25" as="geometry" />
        </mxCell>
        <mxCell id="controller-tasks" value="• Manejo de HTTP&#xa;• Validación de input&#xa;• Serialización JSON" style="text;html=1;strokeColor=none;fillColor=none;align=left;verticalAlign=middle;whiteSpace=wrap;fontSize=11" vertex="1" parent="1">
          <mxGeometry x="360" y="165" width="320" height="60" as="geometry" />
        </mxCell>

        <!-- Flecha 1 -->
        <mxCell id="arrow1" value="" style="endArrow=classic;html=1;strokeWidth=2;fillColor=#d5e8d4;strokeColor=#82b366" edge="1" parent="1">
          <mxGeometry width="50" height="50" relative="1" as="geometry">
            <mxPoint x="424.5" y="240" as="sourcePoint" />
            <mxPoint x="424.5" y="280" as="targetPoint" />
          </mxGeometry>
        </mxCell>

        <!-- Capa 2: Service -->
        <mxCell id="service-box" value="" style="rounded=1;whiteSpace=wrap;html=1;fillColor=#d5e8d4;strokeColor=#82b366;fontStyle=1" vertex="1" parent="1">
          <mxGeometry x="150" y="280" width="550" height="120" as="geometry" />
        </mxCell>
        <mxCell id="service-title" value="Business Logic Layer (Service)" style="text;html=1;strokeColor=none;fillColor=none;align=center;verticalAlign=middle;whiteSpace=wrap;fontSize=16;fontStyle=1" vertex="1" parent="1">
          <mxGeometry x="150" y="290" width="550" height="30" as="geometry" />
        </mxCell>
        <mxCell id="service-annotation" value="@Service" style="text;html=1;strokeColor=none;fillColor=#f5f5f5;align=center;verticalAlign=middle;whiteSpace=wrap;fontSize=12;fontFamily=Courier New;fontColor=#333333;" vertex="1" parent="1">
          <mxGeometry x="180" y="330" width="100" height="25" as="geometry" />
        </mxCell>
        <mxCell id="service-tasks" value="• Lógica de negocio&#xa;• Validaciones complejas&#xa;• Transacciones" style="text;html=1;strokeColor=none;fillColor=none;align=left;verticalAlign=middle;whiteSpace=wrap;fontSize=11" vertex="1" parent="1">
          <mxGeometry x="360" y="325" width="320" height="60" as="geometry" />
        </mxCell>

        <!-- Flecha 2 -->
        <mxCell id="arrow2" value="" style="endArrow=classic;html=1;strokeWidth=2;fillColor=#fff2cc;strokeColor=#d6b656" edge="1" parent="1">
          <mxGeometry width="50" height="50" relative="1" as="geometry">
            <mxPoint x="424.5" y="400" as="sourcePoint" />
            <mxPoint x="424.5" y="440" as="targetPoint" />
          </mxGeometry>
        </mxCell>

        <!-- Capa 3: Repository -->
        <mxCell id="repository-box" value="" style="rounded=1;whiteSpace=wrap;html=1;fillColor=#fff2cc;strokeColor=#d6b656;fontStyle=1" vertex="1" parent="1">
          <mxGeometry x="150" y="440" width="550" height="120" as="geometry" />
        </mxCell>
        <mxCell id="repository-title" value="Data Access Layer (Repository)" style="text;html=1;strokeColor=none;fillColor=none;align=center;verticalAlign=middle;whiteSpace=wrap;fontSize=16;fontStyle=1" vertex="1" parent="1">
          <mxGeometry x="150" y="450" width="550" height="30" as="geometry" />
        </mxCell>
        <mxCell id="repository-annotation" value="@Repository" style="text;html=1;strokeColor=none;fillColor=#f5f5f5;align=center;verticalAlign=middle;whiteSpace=wrap;fontSize=12;fontFamily=Courier New;fontColor=#333333;" vertex="1" parent="1">
          <mxGeometry x="180" y="490" width="120" height="25" as="geometry" />
        </mxCell>
        <mxCell id="repository-tasks" value="• Queries a BD&#xa;• CRUD operations&#xa;• Mapeo OR/M" style="text;html=1;strokeColor=none;fillColor=none;align=left;verticalAlign=middle;whiteSpace=wrap;fontSize=11" vertex="1" parent="1">
          <mxGeometry x="360" y="485" width="320" height="60" as="geometry" />
        </mxCell>

        <!-- Flecha 3 -->
        <mxCell id="arrow3" value="" style="endArrow=classic;html=1;strokeWidth=2;fillColor=#f8cecc;strokeColor=#b85450" edge="1" parent="1">
          <mxGeometry width="50" height="50" relative="1" as="geometry">
            <mxPoint x="424.5" y="560" as="sourcePoint" />
            <mxPoint x="424.5" y="600" as="targetPoint" />
          </mxGeometry>
        </mxCell>

        <!-- Capa 4: Database -->
        <mxCell id="database-box" value="" style="shape=cylinder3;whiteSpace=wrap;html=1;boundedLbl=1;backgroundOutline=1;size=15;fillColor=#f8cecc;strokeColor=#b85450;" vertex="1" parent="1">
          <mxGeometry x="350" y="600" width="150" height="80" as="geometry" />
        </mxCell>
        <mxCell id="database-label" value="Database" style="text;html=1;strokeColor=none;fillColor=none;align=center;verticalAlign=middle;whiteSpace=wrap;fontSize=14;fontStyle=1" vertex="1" parent="1">
          <mxGeometry x="375" y="625" width="100" height="30" as="geometry" />
        </mxCell>

        <!-- Nota lateral -->
        <mxCell id="nota" value="Clase 1: Usamos ArrayList&#xa;Clase 2+: Usamos PostgreSQL" style="rounded=1;whiteSpace=wrap;html=1;fillColor=#e1d5e7;strokeColor=#9673a6;fontSize=11;align=left;verticalAlign=top;spacing=10;" vertex="1" parent="1">
          <mxGeometry x="50" y="600" width="200" height="70" as="geometry" />
        </mxCell>

      </root>
    </mxGraphModel>
  </diagram>
</mxfile>
